<svg xmlns="http://www.w3.org/2000/svg" viewBox="0 0 100 100">
  <defs>
    <linearGradient id="carGradient" x1="0%" y1="0%" x2="100%" y2="100%">
      <stop offset="0%" style="stop-color:#3B82F6;stop-opacity:1" />
      <stop offset="100%" style="stop-color:#1E40AF;stop-opacity:1" />
    </linearGradient>
    <linearGradient id="bgGradient" x1="0%" y1="0%" x2="100%" y2="100%">
      <stop offset="0%" style="stop-color:#EFF6FF;stop-opacity:1" />
      <stop offset="100%" style="stop-color:#DBEAFE;stop-opacity:1" />
    </linearGradient>
  </defs>
  
  <!-- Background circle -->
  <circle cx="50" cy="50" r="48" fill="url(#bgGradient)" stroke="#3B82F6" stroke-width="2"/>
  
  <!-- Car body -->
  <path d="M25 45 L35 35 L65 35 L75 45 L75 65 L70 65 L70 70 L65 70 L65 65 L35 65 L35 70 L30 70 L30 65 L25 65 Z" 
        fill="url(#carGradient)" stroke="#1E40AF" stroke-width="1"/>
  
  <!-- Car windows -->
  <path d="M35 35 L40 40 L60 40 L65 35 Z" fill="#DBEAFE" stroke="#3B82F6" stroke-width="0.5"/>
  
  <!-- Wheels -->
  <circle cx="35" cy="65" r="5" fill="#374151" stroke="#1F2937" stroke-width="1"/>
  <circle cx="65" cy="65" r="5" fill="#374151" stroke="#1F2937" stroke-width="1"/>
  <circle cx="35" cy="65" r="2" fill="#6B7280"/>
  <circle cx="65" cy="65" r="2" fill="#6B7280"/>
  
  <!-- Car details -->
  <rect x="42" y="42" width="16" height="8" fill="#F3F4F6" stroke="#3B82F6" stroke-width="0.5" rx="1"/>
  <circle cx="45" cy="52" r="1.5" fill="#FCD34D"/>
  <circle cx="55" cy="52" r="1.5" fill="#FCD34D"/>
  
  <!-- Driver symbol -->
  <circle cx="50" cy="25" r="8" fill="#3B82F6" stroke="#1E40AF" stroke-width="1"/>
  <path d="M46 22 L50 18 L54 22 Z" fill="white"/>
  <rect x="48" y="22" width="4" height="6" fill="white" rx="1"/>
</svg>